<svg viewBox="0 0 1440 960" xmlns="http://www.w3.org/2000/svg" font-family="'Segoe UI',Arial,sans-serif">
  <defs>
    <marker id="arr" markerWidth="10" markerHeight="7" refX="9" refY="3.5" orient="auto">
      <polygon points="0 0,10 3.5,0 7" fill="#475569"/>
    </marker>
    <marker id="arr-blue" markerWidth="10" markerHeight="7" refX="9" refY="3.5" orient="auto">
      <polygon points="0 0,10 3.5,0 7" fill="#3b82f6"/>
    </marker>
  </defs>

  <!-- Background -->
  <rect width="1440" height="960" fill="#0d1117"/>

  <!-- Title -->
  <rect x="0" y="0" width="1440" height="70" fill="#161b22"/>
  <text x="720" y="30" text-anchor="middle" fill="#e6edf3" font-size="22" font-weight="700">StockSignalAnalyzer — High Level Architecture</text>
  <text x="720" y="56" text-anchor="middle" fill="#8b949e" font-size="13">Institutional-Grade Indian FnO Trading Platform · Clean Architecture · DDD · Event-Driven · Broker-Agnostic</text>

  <!-- ── LAYER 1: PRESENTATION ── -->
  <rect x="20" y="85" width="1400" height="165" rx="8" fill="#0f2336" stroke="#1d4ed8" stroke-width="1.5"/>
  <rect x="20" y="85" width="170" height="165" rx="8" fill="#1d4ed8"/>
  <text x="105" y="156" text-anchor="middle" fill="#fff" font-size="13" font-weight="700" transform="rotate(-90,105,168)">PRESENTATION</text>
  <text x="105" y="178" text-anchor="middle" fill="#bfdbfe" font-size="10">Layer 1</text>

  <!-- Presentation components -->
  <rect x="210" y="103" width="170" height="55" rx="6" fill="#1e3a5f" stroke="#3b82f6" stroke-width="1.5"/>
  <text x="295" y="126" text-anchor="middle" fill="#93c5fd" font-size="11" font-weight="600">Dashboard UI</text>
  <text x="295" y="143" text-anchor="middle" fill="#64748b" font-size="10">React / Web</text>
  <text x="295" y="156" text-anchor="middle" fill="#64748b" font-size="10">Live Updates</text>

  <rect x="400" y="103" width="170" height="55" rx="6" fill="#1e3a5f" stroke="#3b82f6" stroke-width="1.5"/>
  <text x="485" y="126" text-anchor="middle" fill="#93c5fd" font-size="11" font-weight="600">REST API</text>
  <text x="485" y="143" text-anchor="middle" fill="#64748b" font-size="10">FastAPI</text>
  <text x="485" y="156" text-anchor="middle" fill="#64748b" font-size="10">JWT Auth · HTTPS</text>

  <rect x="590" y="103" width="170" height="55" rx="6" fill="#1e3a5f" stroke="#3b82f6" stroke-width="1.5"/>
  <text x="675" y="126" text-anchor="middle" fill="#93c5fd" font-size="11" font-weight="600">WebSocket Server</text>
  <text x="675" y="143" text-anchor="middle" fill="#64748b" font-size="10">Live Ticks · Signals</text>
  <text x="675" y="156" text-anchor="middle" fill="#64748b" font-size="10">Dashboard Push</text>

  <rect x="780" y="103" width="170" height="55" rx="6" fill="#1e3a5f" stroke="#3b82f6" stroke-width="1.5"/>
  <text x="865" y="126" text-anchor="middle" fill="#93c5fd" font-size="11" font-weight="600">Admin Panel</text>
  <text x="865" y="143" text-anchor="middle" fill="#64748b" font-size="10">Kill Switch · Config</text>
  <text x="865" y="156" text-anchor="middle" fill="#64748b" font-size="10">User Management</text>

  <rect x="970" y="103" width="180" height="55" rx="6" fill="#1e3a5f" stroke="#3b82f6" stroke-width="1.5"/>
  <text x="1060" y="126" text-anchor="middle" fill="#93c5fd" font-size="11" font-weight="600">Health Check API</text>
  <text x="1060" y="143" text-anchor="middle" fill="#64748b" font-size="10">Broker · DB · Redis</text>
  <text x="1060" y="156" text-anchor="middle" fill="#64748b" font-size="10">OpenAI · NSE</text>

  <rect x="210" y="172" width="940" height="64" rx="6" fill="#111827" stroke="#1e40af" stroke-width="1" stroke-dasharray="4,3"/>
  <text x="680" y="195" text-anchor="middle" fill="#6b7280" font-size="10" font-weight="600">CONTROLLERS ARE THIN · No business logic · Dependency Injection · Pydantic Request/Response Models</text>
  <text x="680" y="213" text-anchor="middle" fill="#4b5563" font-size="10">JWT middleware · CORS policy · Rate limiting · Input validation at boundary · Structured request/response logging</text>
  <text x="680" y="229" text-anchor="middle" fill="#4b5563" font-size="10">All routes delegate to Application Services · No direct DB access from controllers</text>

  <!-- Layer 1 → 2 arrow -->
  <line x1="720" y1="250" x2="720" y2="270" stroke="#475569" stroke-width="2" marker-end="url(#arr)"/>
  <text x="730" y="264" fill="#8b949e" font-size="10">Depends on</text>

  <!-- ── LAYER 2: APPLICATION ── -->
  <rect x="20" y="275" width="1400" height="200" rx="8" fill="#1a1a0e" stroke="#d97706" stroke-width="1.5"/>
  <rect x="20" y="275" width="170" height="200" rx="8" fill="#d97706"/>
  <text x="105" y="344" text-anchor="middle" fill="#fff" font-size="13" font-weight="700" transform="rotate(-90,105,375)">APPLICATION</text>
  <text x="105" y="388" text-anchor="middle" fill="#fef3c7" font-size="10">Layer 2</text>

  <!-- Application components -->
  <rect x="210" y="292" width="155" height="68" rx="6" fill="#2a1f0a" stroke="#f59e0b" stroke-width="1.5"/>
  <text x="287" y="314" text-anchor="middle" fill="#fbbf24" font-size="11" font-weight="600">Market Data Service</text>
  <text x="287" y="330" text-anchor="middle" fill="#92400e" font-size="10">IDataProvider</text>
  <text x="287" y="345" text-anchor="middle" fill="#92400e" font-size="10">WebSocket Manager</text>
  <text x="287" y="360" text-anchor="middle" fill="#92400e" font-size="10">Candle Aggregator</text>

  <rect x="378" y="292" width="155" height="68" rx="6" fill="#2a1f0a" stroke="#f59e0b" stroke-width="1.5"/>
  <text x="455" y="314" text-anchor="middle" fill="#fbbf24" font-size="11" font-weight="600">Feature Engineering</text>
  <text x="455" y="330" text-anchor="middle" fill="#92400e" font-size="10">Technical Indicators</text>
  <text x="455" y="345" text-anchor="middle" fill="#92400e" font-size="10">Options Analytics</text>
  <text x="455" y="360" text-anchor="middle" fill="#92400e" font-size="10">Regime Engine</text>

  <rect x="546" y="292" width="155" height="68" rx="6" fill="#2a1f0a" stroke="#f59e0b" stroke-width="1.5"/>
  <text x="623" y="314" text-anchor="middle" fill="#fbbf24" font-size="11" font-weight="600">Signal Pipeline</text>
  <text x="623" y="330" text-anchor="middle" fill="#92400e" font-size="10">Strategy Framework</text>
  <text x="623" y="345" text-anchor="middle" fill="#92400e" font-size="10">Scoring Engine</text>
  <text x="623" y="360" text-anchor="middle" fill="#92400e" font-size="10">Confidence Engine</text>

  <rect x="714" y="292" width="155" height="68" rx="6" fill="#2a1f0a" stroke="#f59e0b" stroke-width="1.5"/>
  <text x="791" y="314" text-anchor="middle" fill="#fbbf24" font-size="11" font-weight="600">Risk Engine</text>
  <text x="791" y="330" text-anchor="middle" fill="#92400e" font-size="10">Pre-Trade (15 checks)</text>
  <text x="791" y="345" text-anchor="middle" fill="#92400e" font-size="10">Real-Time MTM</text>
  <text x="791" y="360" text-anchor="middle" fill="#92400e" font-size="10">Portfolio Greeks</text>

  <rect x="882" y="292" width="155" height="68" rx="6" fill="#2a1f0a" stroke="#f59e0b" stroke-width="1.5"/>
  <text x="959" y="314" text-anchor="middle" fill="#fbbf24" font-size="11" font-weight="600">OMS</text>
  <text x="959" y="330" text-anchor="middle" fill="#92400e" font-size="10">Order Lifecycle</text>
  <text x="959" y="345" text-anchor="middle" fill="#92400e" font-size="10">IBroker Adapter</text>
  <text x="959" y="360" text-anchor="middle" fill="#92400e" font-size="10">Reconciliation</text>

  <rect x="1050" y="292" width="155" height="68" rx="6" fill="#2a1f0a" stroke="#f59e0b" stroke-width="1.5"/>
  <text x="1127" y="314" text-anchor="middle" fill="#fbbf24" font-size="11" font-weight="600">Support Services</text>
  <text x="1127" y="330" text-anchor="middle" fill="#92400e" font-size="10">Kill Switch</text>
  <text x="1127" y="345" text-anchor="middle" fill="#92400e" font-size="10">Notification · IAIProvider</text>
  <text x="1127" y="360" text-anchor="middle" fill="#92400e" font-size="10">Instrument Master</text>

  <!-- Event bus label inside app layer -->
  <rect x="210" y="372" width="995" height="88" rx="6" fill="#111827" stroke="#d97706" stroke-width="1" stroke-dasharray="4,3"/>
  <text x="707" y="392" text-anchor="middle" fill="#d97706" font-size="11" font-weight="700">EVENT BUS — Redis Streams (Phase 1) → Apache Kafka (Phase 2+)</text>
  <text x="707" y="410" text-anchor="middle" fill="#6b7280" font-size="10">market_data.tick.received · features.technical.computed · features.regime.detected · signal.risk.approved · signal.risk.rejected</text>
  <text x="707" y="426" text-anchor="middle" fill="#6b7280" font-size="10">order.submitted · order.filled · order.rejected · position.opened · position.closed · risk.limit.breached</text>
  <text x="707" y="442" text-anchor="middle" fill="#6b7280" font-size="10">system.kill_switch.activated · system.broker.disconnected · system.heartbeat · news.sentiment.computed</text>
  <text x="707" y="456" text-anchor="middle" fill="#4b5563" font-size="9">At-least-once delivery · Consumer groups · Dead Letter Streams · Backtesting replay support · Event versioning</text>

  <!-- Layer 2 → 3 arrow -->
  <line x1="720" y1="476" x2="720" y2="496" stroke="#475569" stroke-width="2" marker-end="url(#arr)"/>
  <text x="730" y="490" fill="#8b949e" font-size="10">Depends on</text>

  <!-- ── LAYER 3: DOMAIN ── -->
  <rect x="20" y="500" width="1400" height="145" rx="8" fill="#0f1f0f" stroke="#16a34a" stroke-width="1.5"/>
  <rect x="20" y="500" width="170" height="145" rx="8" fill="#16a34a"/>
  <text x="105" y="572" text-anchor="middle" fill="#fff" font-size="13" font-weight="700" transform="rotate(-90,105,573)">DOMAIN</text>
  <text x="105" y="614" text-anchor="middle" fill="#bbf7d0" font-size="10">Layer 3</text>

  <!-- Domain entities -->
  <rect x="210" y="516" width="120" height="110" rx="6" fill="#052e16" stroke="#22c55e" stroke-width="1.5"/>
  <text x="270" y="535" text-anchor="middle" fill="#4ade80" font-size="10" font-weight="700">ENTITIES</text>
  <text x="270" y="552" text-anchor="middle" fill="#166534" font-size="10">Signal</text>
  <text x="270" y="567" text-anchor="middle" fill="#166534" font-size="10">Order</text>
  <text x="270" y="582" text-anchor="middle" fill="#166534" font-size="10">Position · Trade</text>
  <text x="270" y="597" text-anchor="middle" fill="#166534" font-size="10">Strategy</text>
  <text x="270" y="612" text-anchor="middle" fill="#166534" font-size="10">NewsItem</text>

  <rect x="345" y="516" width="130" height="110" rx="6" fill="#052e16" stroke="#22c55e" stroke-width="1.5"/>
  <text x="410" y="535" text-anchor="middle" fill="#4ade80" font-size="10" font-weight="700">VALUE OBJECTS</text>
  <text x="410" y="552" text-anchor="middle" fill="#166534" font-size="10">Price · Quantity</text>
  <text x="410" y="567" text-anchor="middle" fill="#166534" font-size="10">Confidence · Score</text>
  <text x="410" y="582" text-anchor="middle" fill="#166534" font-size="10">Symbol</text>
  <text x="410" y="597" text-anchor="middle" fill="#166534" font-size="10">MarketSnapshot</text>
  <text x="410" y="612" text-anchor="middle" fill="#166534" font-size="10">OptionChainSnapshot</text>

  <rect x="490" y="516" width="130" height="110" rx="6" fill="#052e16" stroke="#22c55e" stroke-width="1.5"/>
  <text x="555" y="535" text-anchor="middle" fill="#4ade80" font-size="10" font-weight="700">ENUMS</text>
  <text x="555" y="552" text-anchor="middle" fill="#166534" font-size="10">AssetType · Exchange</text>
  <text x="555" y="567" text-anchor="middle" fill="#166534" font-size="10">SignalDirection</text>
  <text x="555" y="582" text-anchor="middle" fill="#166534" font-size="10">OrderStatus</text>
  <text x="555" y="597" text-anchor="middle" fill="#166534" font-size="10">MarketRegime</text>
  <text x="555" y="612" text-anchor="middle" fill="#166534" font-size="10">BrokerType</text>

  <rect x="635" y="516" width="130" height="110" rx="6" fill="#052e16" stroke="#22c55e" stroke-width="1.5"/>
  <text x="700" y="535" text-anchor="middle" fill="#4ade80" font-size="10" font-weight="700">INTERFACES</text>
  <text x="700" y="552" text-anchor="middle" fill="#166534" font-size="10">IBroker</text>
  <text x="700" y="567" text-anchor="middle" fill="#166534" font-size="10">IDataProvider</text>
  <text x="700" y="582" text-anchor="middle" fill="#166534" font-size="10">IStrategy</text>
  <text x="700" y="597" text-anchor="middle" fill="#166534" font-size="10">IScoreComponent</text>
  <text x="700" y="612" text-anchor="middle" fill="#166534" font-size="10">IAIProvider</text>

  <rect x="780" y="516" width="130" height="110" rx="6" fill="#052e16" stroke="#22c55e" stroke-width="1.5"/>
  <text x="845" y="535" text-anchor="middle" fill="#4ade80" font-size="10" font-weight="700">DOMAIN EVENTS</text>
  <text x="845" y="552" text-anchor="middle" fill="#166534" font-size="10">SignalApproved</text>
  <text x="845" y="567" text-anchor="middle" fill="#166534" font-size="10">OrderFilled</text>
  <text x="845" y="582" text-anchor="middle" fill="#166534" font-size="10">PositionOpened</text>
  <text x="845" y="597" text-anchor="middle" fill="#166534" font-size="10">LimitBreached</text>
  <text x="845" y="612" text-anchor="middle" fill="#166534" font-size="10">KillSwitchActivated</text>

  <rect x="925" y="516" width="280" height="110" rx="6" fill="#111827" stroke="#16a34a" stroke-width="1" stroke-dasharray="4,3"/>
  <text x="1065" y="535" text-anchor="middle" fill="#22c55e" font-size="10" font-weight="700">DOMAIN RULES</text>
  <text x="1065" y="553" text-anchor="middle" fill="#4b5563" font-size="10">Domain has zero infrastructure dependencies</text>
  <text x="1065" y="569" text-anchor="middle" fill="#4b5563" font-size="10">No ORM models in domain · Entities are pure Python</text>
  <text x="1065" y="585" text-anchor="middle" fill="#4b5563" font-size="10">Repository interfaces defined here, implemented in infra</text>
  <text x="1065" y="601" text-anchor="middle" fill="#4b5563" font-size="10">All business rules enforced via domain exceptions</text>
  <text x="1065" y="617" text-anchor="middle" fill="#4b5563" font-size="10">Illegal state transitions raise DomainError</text>

  <!-- Layer 3 → 4 arrow -->
  <line x1="720" y1="646" x2="720" y2="666" stroke="#475569" stroke-width="2" marker-end="url(#arr)"/>
  <text x="730" y="660" fill="#8b949e" font-size="10">Depends on</text>

  <!-- ── LAYER 4: INFRASTRUCTURE ── -->
  <rect x="20" y="670" width="1400" height="200" rx="8" fill="#160a2a" stroke="#7c3aed" stroke-width="1.5"/>
  <rect x="20" y="670" width="170" height="200" rx="8" fill="#7c3aed"/>
  <text x="105" y="744" text-anchor="middle" fill="#fff" font-size="13" font-weight="700" transform="rotate(-90,105,770)">INFRASTRUCTURE</text>
  <text x="105" y="790" text-anchor="middle" fill="#ddd6fe" font-size="10">Layer 4</text>

  <!-- Infra boxes -->
  <rect x="210" y="688" width="175" height="72" rx="6" fill="#1e0a3c" stroke="#a855f7" stroke-width="1.5"/>
  <text x="297" y="708" text-anchor="middle" fill="#c084fc" font-size="11" font-weight="600">PostgreSQL</text>
  <text x="297" y="724" text-anchor="middle" fill="#6b21a8" font-size="10">+ TimescaleDB</text>
  <text x="297" y="740" text-anchor="middle" fill="#6b21a8" font-size="10">Hypertables · Compression</text>
  <text x="297" y="756" text-anchor="middle" fill="#6b21a8" font-size="10">Cont. Aggregates · Alembic</text>

  <rect x="400" y="688" width="175" height="72" rx="6" fill="#1e0a3c" stroke="#a855f7" stroke-width="1.5"/>
  <text x="487" y="708" text-anchor="middle" fill="#c084fc" font-size="11" font-weight="600">Redis</text>
  <text x="487" y="724" text-anchor="middle" fill="#6b21a8" font-size="10">Streams (Event Bus)</text>
  <text x="487" y="740" text-anchor="middle" fill="#6b21a8" font-size="10">Cache · Kill Switch State</text>
  <text x="487" y="756" text-anchor="middle" fill="#6b21a8" font-size="10">Session · Rate Limiter</text>

  <rect x="590" y="688" width="175" height="72" rx="6" fill="#1e0a3c" stroke="#a855f7" stroke-width="1.5"/>
  <text x="677" y="708" text-anchor="middle" fill="#c084fc" font-size="11" font-weight="600">Kite Connect</text>
  <text x="677" y="724" text-anchor="middle" fill="#6b21a8" font-size="10">IBroker · IDataProvider</text>
  <text x="677" y="740" text-anchor="middle" fill="#6b21a8" font-size="10">WebSocket Streaming</text>
  <text x="677" y="756" text-anchor="middle" fill="#6b21a8" font-size="10">Orders · Margin · History</text>

  <rect x="780" y="688" width="175" height="72" rx="6" fill="#1e0a3c" stroke="#a855f7" stroke-width="1.5"/>
  <text x="867" y="708" text-anchor="middle" fill="#c084fc" font-size="11" font-weight="600">NSE Data Provider</text>
  <text x="867" y="724" text-anchor="middle" fill="#6b21a8" font-size="10">IDataProvider</text>
  <text x="867" y="740" text-anchor="middle" fill="#6b21a8" font-size="10">Option Chain · LTP</text>
  <text x="867" y="756" text-anchor="middle" fill="#6b21a8" font-size="10">Market Depth</text>

  <rect x="970" y="688" width="175" height="72" rx="6" fill="#1e0a3c" stroke="#a855f7" stroke-width="1.5"/>
  <text x="1057" y="708" text-anchor="middle" fill="#c084fc" font-size="11" font-weight="600">IAIProvider</text>
  <text x="1057" y="724" text-anchor="middle" fill="#6b21a8" font-size="10">OpenAI (current)</text>
  <text x="1057" y="740" text-anchor="middle" fill="#6b21a8" font-size="10">Anthropic · Gemini</text>
  <text x="1057" y="756" text-anchor="middle" fill="#6b21a8" font-size="10">Ollama (testing)</text>

  <rect x="1160" y="688" width="175" height="72" rx="6" fill="#1e0a3c" stroke="#a855f7" stroke-width="1.5"/>
  <text x="1247" y="708" text-anchor="middle" fill="#c084fc" font-size="11" font-weight="600">Notifications</text>
  <text x="1247" y="724" text-anchor="middle" fill="#6b21a8" font-size="10">Telegram</text>
  <text x="1247" y="740" text-anchor="middle" fill="#6b21a8" font-size="10">Email</text>
  <text x="1247" y="756" text-anchor="middle" fill="#6b21a8" font-size="10">INotifier interface</text>

  <!-- Future brokers row -->
  <rect x="210" y="772" width="1125" height="82" rx="6" fill="#111827" stroke="#6d28d9" stroke-width="1" stroke-dasharray="4,3"/>
  <text x="772" y="793" text-anchor="middle" fill="#7c3aed" font-size="11" font-weight="700">FUTURE BROKER ADAPTERS (IBroker implementations)</text>
  <rect x="230" y="803" width="120" height="38" rx="5" fill="#1e0a3c" stroke="#6d28d9" stroke-width="1"/>
  <text x="290" y="826" text-anchor="middle" fill="#7c3aed" font-size="11">AngelBroker</text>
  <rect x="365" y="803" width="120" height="38" rx="5" fill="#1e0a3c" stroke="#6d28d9" stroke-width="1"/>
  <text x="425" y="826" text-anchor="middle" fill="#7c3aed" font-size="11">DhanBroker</text>
  <rect x="500" y="803" width="120" height="38" rx="5" fill="#1e0a3c" stroke="#6d28d9" stroke-width="1"/>
  <text x="560" y="826" text-anchor="middle" fill="#7c3aed" font-size="11">FyersBroker</text>
  <rect x="635" y="803" width="120" height="38" rx="5" fill="#1e0a3c" stroke="#6d28d9" stroke-width="1"/>
  <text x="695" y="826" text-anchor="middle" fill="#7c3aed" font-size="11">GrowwBroker</text>
  <rect x="770" y="803" width="120" height="38" rx="5" fill="#1e0a3c" stroke="#6d28d9" stroke-width="1"/>
  <text x="830" y="826" text-anchor="middle" fill="#7c3aed" font-size="11">UpstoxBroker</text>
  <rect x="905" y="803" width="145" height="38" rx="5" fill="#1e0a3c" stroke="#6d28d9" stroke-width="1"/>
  <text x="977" y="826" text-anchor="middle" fill="#7c3aed" font-size="11">MCX / Currency</text>
  <rect x="1065" y="803" width="255" height="38" rx="5" fill="#1e0a3c" stroke="#6d28d9" stroke-width="1"/>
  <text x="1192" y="818" text-anchor="middle" fill="#6b21a8" font-size="10">All implement IBroker · Strategy layer</text>
  <text x="1192" y="834" text-anchor="middle" fill="#6b21a8" font-size="10">never knows broker type</text>

  <!-- Dependency rule note -->
  <rect x="20" y="877" width="1400" height="70" rx="4" fill="#161b22" stroke="#30363d" stroke-width="1"/>
  <text x="720" y="899" text-anchor="middle" fill="#f59e0b" font-size="12" font-weight="700">DEPENDENCY RULE — Dependencies flow INWARD only</text>
  <text x="720" y="918" text-anchor="middle" fill="#6b7280" font-size="11">Presentation → Application → Domain ← Infrastructure · Domain never imports from Infrastructure · Infrastructure implements Domain interfaces</text>
  <text x="720" y="935" text-anchor="middle" fill="#4b5563" font-size="10">Phase 1: NSE FnO · Phase 2: Equity Swing · Phase 3: Long-Term Investing · Phase 4+: Multi-Asset (Commodity, Currency, Crypto)</text>
</svg>
