<svg viewBox="0 0 1900 1250" xmlns="http://www.w3.org/2000/svg" font-family="'Segoe UI',Arial,sans-serif">
<defs>
  <marker id="arr" markerWidth="8" markerHeight="6" refX="7" refY="3" orient="auto">
    <polygon points="0 0,8 3,0 6" fill="#475569"/>
  </marker>
  <marker id="arrG" markerWidth="8" markerHeight="6" refX="7" refY="3" orient="auto">
    <polygon points="0 0,8 3,0 6" fill="#22c55e"/>
  </marker>
  <marker id="arrO" markerWidth="8" markerHeight="6" refX="7" refY="3" orient="auto">
    <polygon points="0 0,8 3,0 6" fill="#f59e0b"/>
  </marker>
  <marker id="arrR" markerWidth="8" markerHeight="6" refX="7" refY="3" orient="auto">
    <polygon points="0 0,8 3,0 6" fill="#ef4444"/>
  </marker>
  <marker id="arrB" markerWidth="8" markerHeight="6" refX="7" refY="3" orient="auto">
    <polygon points="0 0,8 3,0 6" fill="#3b82f6"/>
  </marker>
  <marker id="arrC" markerWidth="8" markerHeight="6" refX="7" refY="3" orient="auto">
    <polygon points="0 0,8 3,0 6" fill="#06b6d4"/>
  </marker>
  <marker id="arrP" markerWidth="8" markerHeight="6" refX="7" refY="3" orient="auto">
    <polygon points="0 0,8 3,0 6" fill="#a855f7"/>
  </marker>
  <marker id="arrT" markerWidth="8" markerHeight="6" refX="7" refY="3" orient="auto">
    <polygon points="0 0,8 3,0 6" fill="#14b8a6"/>
  </marker>
</defs>

<rect width="1900" height="1250" fill="#0d1117"/>

<!-- Title -->
<text x="950" y="35" text-anchor="middle" fill="#e2e8f0" font-size="20" font-weight="700">Event Flow — Redis Streams Architecture</text>
<text x="950" y="55" text-anchor="middle" fill="#64748b" font-size="12">All inter-service events pass through Redis Streams · Consumer groups ensure exactly-once processing · DLQ for failed messages · Phase 2: Kafka migration via IEventBus</text>

<!-- COLUMN HEADERS -->
<text x="160" y="80" text-anchor="middle" fill="#475569" font-size="12" font-weight="600">PRODUCERS</text>
<text x="780" y="80" text-anchor="middle" fill="#a855f7" font-size="13" font-weight="700">REDIS STREAMS  (Event Bus)</text>
<text x="1550" y="80" text-anchor="middle" fill="#475569" font-size="12" font-weight="600">CONSUMERS  (consumer groups)</text>
<line x1="340" y1="60" x2="340" y2="1220" stroke="#1e2530" stroke-width="1"/>
<line x1="1200" y1="60" x2="1200" y2="1220" stroke="#1e2530" stroke-width="1"/>

<!-- ─────────────────────────────────────────── -->
<!-- DOMAIN 1: MARKET DATA -->
<!-- ─────────────────────────────────────────── -->
<rect x="20" y="90" width="160" height="24" rx="4" fill="#1e3a5f"/>
<text x="100" y="107" text-anchor="middle" fill="#93c5fd" font-size="11" font-weight="600">MARKET DATA</text>

<!-- Stream 1: market_data.tick -->
<rect x="360" y="90" width="820" height="46" rx="6" fill="#1a1f2e" stroke="#3b82f6" stroke-width="1.5"/>
<text x="380" y="110" fill="#3b82f6" font-size="11" font-weight="700">market_data.tick</text>
<text x="660" y="110" fill="#64748b" font-size="10">instrument_token · ltp · bid · ask · volume · oi · timestamp</text>
<text x="380" y="127" fill="#475569" font-size="10">MAXLEN≈100,000 · &lt;1s retention · ~50k msg/min peak · no TTL · Decimal prices</text>
<text x="1050" y="127" fill="#374151" font-size="9">latency budget: ≤50ms tick→stream</text>

<!-- Stream 2: market_data.candle -->
<rect x="360" y="145" width="820" height="46" rx="6" fill="#1a1f2e" stroke="#3b82f6" stroke-width="1.5"/>
<text x="380" y="165" fill="#3b82f6" font-size="11" font-weight="700">market_data.candle</text>
<text x="600" y="165" fill="#64748b" font-size="10">symbol · timeframe · open · high · low · close · volume · oi · bucket_ts</text>
<text x="380" y="182" fill="#475569" font-size="10">MAXLEN≈10,000 · 5min retention · generated per-bucket close · 1m/5m/15m/1h</text>

<!-- Stream 3: market_data.option_chain -->
<rect x="360" y="200" width="820" height="46" rx="6" fill="#1a1f2e" stroke="#3b82f6" stroke-width="1.5"/>
<text x="380" y="220" fill="#3b82f6" font-size="11" font-weight="700">market_data.option_chain</text>
<text x="620" y="220" fill="#64748b" font-size="10">underlying · expiry · full_chain[] · iv_surface · pcr · max_pain · updated_at</text>
<text x="380" y="237" fill="#475569" font-size="10">MAXLEN≈1,000 · 60s interval · REST full chain + WS per-strike merge · ~60s TTL consumer-side</text>

<!-- Producers for market data -->
<rect x="20" y="118" width="140" height="30" rx="6" fill="#1e3a5f" stroke="#3b82f6" stroke-width="1.2"/>
<text x="90" y="137" text-anchor="middle" fill="#93c5fd" font-size="11">WebSocket Manager</text>
<line x1="160" y1="133" x2="360" y2="113" stroke="#3b82f6" stroke-width="1.2" marker-end="url(#arrB)"/>
<line x1="160" y1="133" x2="360" y2="168" stroke="#3b82f6" stroke-width="1.2" marker-end="url(#arrB)"/>

<rect x="20" y="205" width="140" height="30" rx="6" fill="#1e3a5f" stroke="#3b82f6" stroke-width="1.2"/>
<text x="90" y="224" text-anchor="middle" fill="#93c5fd" font-size="11">OptionChain Poller</text>
<line x1="160" y1="220" x2="360" y2="220" stroke="#3b82f6" stroke-width="1.2" marker-end="url(#arrB)"/>

<!-- Consumers for market data streams -->
<rect x="1220" y="90" width="155" height="30" rx="6" fill="#14301e" stroke="#22c55e" stroke-width="1.2"/>
<text x="1298" y="109" text-anchor="middle" fill="#86efac" font-size="10">Candle Aggregator  [cg:candle]</text>
<line x1="1180" y1="113" x2="1220" y2="105" stroke="#22c55e" stroke-width="1.2" marker-end="url(#arrG)"/>

<rect x="1220" y="128" width="155" height="30" rx="6" fill="#14301e" stroke="#22c55e" stroke-width="1.2"/>
<text x="1298" y="147" text-anchor="middle" fill="#86efac" font-size="10">TimescaleDB Writer  [cg:tsdb]</text>
<line x1="1180" y1="113" x2="1220" y2="143" stroke="#22c55e" stroke-width="1.2" marker-end="url(#arrG)"/>

<rect x="1395" y="90" width="175" height="30" rx="6" fill="#14301e" stroke="#22c55e" stroke-width="1.2"/>
<text x="1483" y="109" text-anchor="middle" fill="#86efac" font-size="10">Feature Engineering  [cg:features]</text>
<line x1="1180" y1="168" x2="1395" y2="105" stroke="#3b82f6" stroke-width="1.2" marker-end="url(#arrG)"/>

<rect x="1395" y="128" width="175" height="30" rx="6" fill="#14301e" stroke="#22c55e" stroke-width="1.2"/>
<text x="1483" y="147" text-anchor="middle" fill="#86efac" font-size="10">Backtesting Engine  [cg:backtest]</text>
<line x1="1180" y1="168" x2="1395" y2="143" stroke="#3b82f6" stroke-width="1.2" marker-end="url(#arrG)"/>

<rect x="1220" y="200" width="175" height="30" rx="6" fill="#14301e" stroke="#22c55e" stroke-width="1.2"/>
<text x="1308" y="219" text-anchor="middle" fill="#86efac" font-size="10">Strategy Evaluator × 5  [cg:strategy]</text>
<line x1="1180" y1="223" x2="1220" y2="215" stroke="#22c55e" stroke-width="1.2" marker-end="url(#arrG)"/>

<rect x="1410" y="200" width="160" height="30" rx="6" fill="#14301e" stroke="#22c55e" stroke-width="1.2"/>
<text x="1490" y="219" text-anchor="middle" fill="#86efac" font-size="10">WebSocket Dashboard  [cg:ui]</text>
<line x1="1180" y1="223" x2="1410" y2="215" stroke="#22c55e" stroke-width="1.2" marker-end="url(#arrG)"/>

<!-- ─────────────────────────────────────────── -->
<!-- DOMAIN 2: FEATURES -->
<!-- ─────────────────────────────────────────── -->
<rect x="20" y="258" width="160" height="24" rx="4" fill="#1e2a10"/>
<text x="100" y="275" text-anchor="middle" fill="#86efac" font-size="11" font-weight="600">FEATURES</text>

<rect x="360" y="258" width="820" height="40" rx="6" fill="#141e10" stroke="#22c55e" stroke-width="1.5"/>
<text x="380" y="275" fill="#22c55e" font-size="11" font-weight="700">features.technical</text>
<text x="560" y="275" fill="#64748b" font-size="10">symbol · timeframe · rsi · ema · macd · atr · vwap · bb_width · computed_at</text>
<text x="380" y="290" fill="#475569" font-size="10">MAXLEN≈5,000 · 10min retention · published after each candle close</text>

<rect x="360" y="307" width="820" height="40" rx="6" fill="#141e10" stroke="#22c55e" stroke-width="1.5"/>
<text x="380" y="324" fill="#22c55e" font-size="11" font-weight="700">features.regime</text>
<text x="540" y="324" fill="#64748b" font-size="10">symbol · regime · vix · trend_strength · regime_changed · prev_regime · detected_at</text>
<text x="380" y="339" fill="#475569" font-size="10">MAXLEN≈500 · 30min retention · on-change + 15min heartbeat · 4 regimes: TRENDING_BULLISH/BEARISH · SIDEWAYS · HIGH_VOL</text>

<rect x="360" y="356" width="820" height="40" rx="6" fill="#141e10" stroke="#22c55e" stroke-width="1.5"/>
<text x="380" y="373" fill="#22c55e" font-size="11" font-weight="700">features.sentiment</text>
<text x="540" y="373" fill="#64748b" font-size="10">symbol · score(-1..1) · confidence · key_factors · provider · is_fallback · computed_at</text>
<text x="380" y="388" fill="#475569" font-size="10">MAXLEN≈1,000 · 1h retention · async publish from SentimentService · cache miss returns neutral immediately</text>

<!-- Producers features -->
<rect x="20" y="280" width="140" height="30" rx="6" fill="#1e2a10" stroke="#22c55e" stroke-width="1.2"/>
<text x="90" y="299" text-anchor="middle" fill="#86efac" font-size="11">Feature Engineering</text>
<line x1="160" y1="295" x2="360" y2="278" stroke="#22c55e" stroke-width="1.2" marker-end="url(#arrG)"/>
<line x1="160" y1="295" x2="360" y2="327" stroke="#22c55e" stroke-width="1.2" marker-end="url(#arrG)"/>

<rect x="20" y="358" width="140" height="30" rx="6" fill="#1a1030" stroke="#a855f7" stroke-width="1.2"/>
<text x="90" y="377" text-anchor="middle" fill="#d8b4fe" font-size="11">Sentiment Service</text>
<line x1="160" y1="373" x2="360" y2="376" stroke="#a855f7" stroke-width="1.2" stroke-dasharray="5,3" marker-end="url(#arrP)"/>

<!-- Consumers features -->
<rect x="1220" y="260" width="155" height="30" rx="6" fill="#2a1500" stroke="#f59e0b" stroke-width="1.2"/>
<text x="1298" y="279" text-anchor="middle" fill="#fde68a" font-size="10">Scoring Engine  [cg:scoring]</text>
<line x1="1180" y1="278" x2="1220" y2="275" stroke="#22c55e" stroke-width="1.2" marker-end="url(#arrO)"/>

<rect x="1395" y="260" width="155" height="30" rx="6" fill="#2a1500" stroke="#f59e0b" stroke-width="1.2"/>
<text x="1473" y="279" text-anchor="middle" fill="#fde68a" font-size="10">Regime Engine  [cg:regime]</text>
<line x1="1180" y1="327" x2="1395" y2="275" stroke="#22c55e" stroke-width="1.2" marker-end="url(#arrO)"/>

<rect x="1220" y="308" width="155" height="30" rx="6" fill="#2a1500" stroke="#f59e0b" stroke-width="1.2"/>
<text x="1298" y="327" text-anchor="middle" fill="#fde68a" font-size="10">Confidence Engine  [cg:conf]</text>
<line x1="1180" y1="376" x2="1220" y2="323" stroke="#22c55e" stroke-width="1.2" marker-end="url(#arrO)"/>

<!-- ─────────────────────────────────────────── -->
<!-- DOMAIN 3: SIGNALS -->
<!-- ─────────────────────────────────────────── -->
<rect x="20" y="412" width="160" height="24" rx="4" fill="#2a1a00"/>
<text x="100" y="429" text-anchor="middle" fill="#fbbf24" font-size="11" font-weight="600">SIGNALS</text>

<rect x="360" y="412" width="820" height="40" rx="6" fill="#1a1500" stroke="#f59e0b" stroke-width="1.5"/>
<text x="380" y="429" fill="#f59e0b" font-size="11" font-weight="700">signal.strategy.evaluated</text>
<text x="590" y="429" fill="#64748b" font-size="10">signal_id · symbol · direction · strategy · score · state=EVALUATED · score_breakdown(JSONB)</text>
<text x="380" y="444" fill="#475569" font-size="10">MAXLEN≈5,000 · 30min retention · one message per strategy-symbol-direction combo per candle</text>

<rect x="360" y="461" width="820" height="40" rx="6" fill="#1a1500" stroke="#f59e0b" stroke-width="1.5"/>
<text x="380" y="478" fill="#f59e0b" font-size="11" font-weight="700">signal.scored</text>
<text x="540" y="478" fill="#64748b" font-size="10">signal_id · symbol · direction · score(0-100) · confidence(0-100) · weight_version · expires_at</text>
<text x="380" y="493" fill="#475569" font-size="10">MAXLEN≈2,000 · 30min retention · dedup key enforced: symbol+direction+weight_version</text>

<rect x="360" y="510" width="820" height="40" rx="6" fill="#1a1500" stroke="#22c55e" stroke-width="2"/>
<text x="380" y="527" fill="#4ade80" font-size="11" font-weight="700">signal.risk.approved  ★</text>
<text x="570" y="527" fill="#64748b" font-size="10">signal_id · symbol · instrument_id · recommended_qty · confidence · valid_until · risk_check_ms</text>
<text x="380" y="542" fill="#475569" font-size="10">MAXLEN≈500 · 30min retention · OMS is sole consumer · discard after valid_until · ★ Critical stream</text>

<rect x="360" y="559" width="820" height="40" rx="6" fill="#1a1500" stroke="#ef4444" stroke-width="1.5"/>
<text x="380" y="576" fill="#f87171" font-size="11" font-weight="700">signal.risk.rejected</text>
<text x="550" y="576" fill="#64748b" font-size="10">signal_id · symbol · rejection_reason · check_failed · account_state_snapshot(JSONB)</text>
<text x="380" y="591" fill="#475569" font-size="10">MAXLEN≈2,000 · 1h retention · risk_decisions table write + alert if consecutive rejections &gt;3</text>

<!-- Producers signals -->
<rect x="20" y="437" width="140" height="30" rx="6" fill="#2a1500" stroke="#f59e0b" stroke-width="1.2"/>
<text x="90" y="456" text-anchor="middle" fill="#fde68a" font-size="11">Strategy Evaluator × 5</text>
<line x1="160" y1="452" x2="360" y2="432" stroke="#f59e0b" stroke-width="1.2" marker-end="url(#arrO)"/>

<rect x="20" y="479" width="140" height="30" rx="6" fill="#2a1500" stroke="#f59e0b" stroke-width="1.2"/>
<text x="90" y="498" text-anchor="middle" fill="#fde68a" font-size="11">Scoring + Confidence</text>
<line x1="160" y1="494" x2="360" y2="481" stroke="#f59e0b" stroke-width="1.2" marker-end="url(#arrO)"/>

<rect x="20" y="520" width="140" height="30" rx="6" fill="#2d1515" stroke="#ef4444" stroke-width="1.2"/>
<text x="90" y="539" text-anchor="middle" fill="#fca5a5" font-size="11">Risk Engine</text>
<line x1="160" y1="535" x2="360" y2="530" stroke="#22c55e" stroke-width="1.5" marker-end="url(#arrG)"/>
<line x1="160" y1="535" x2="360" y2="579" stroke="#ef4444" stroke-width="1.2" marker-end="url(#arrR)"/>

<!-- Consumers signals -->
<rect x="1220" y="412" width="155" height="30" rx="6" fill="#2d1515" stroke="#ef4444" stroke-width="1.2"/>
<text x="1298" y="431" text-anchor="middle" fill="#fca5a5" font-size="10">Risk Engine  [cg:risk]</text>
<line x1="1180" y1="432" x2="1220" y2="427" stroke="#f59e0b" stroke-width="1.2" marker-end="url(#arrR)"/>
<line x1="1180" y1="481" x2="1220" y2="427" stroke="#f59e0b" stroke-width="1.2" marker-end="url(#arrR)"/>

<rect x="1220" y="512" width="155" height="30" rx="6" fill="#1a2030" stroke="#06b6d4" stroke-width="1.5"/>
<text x="1298" y="531" text-anchor="middle" fill="#a5f3fc" font-size="10">OMS  [cg:oms]  ★</text>
<line x1="1180" y1="530" x2="1220" y2="527" stroke="#22c55e" stroke-width="1.5" marker-end="url(#arrC)"/>

<rect x="1395" y="512" width="155" height="30" rx="6" fill="#141a1e" stroke="#475569" stroke-width="1.2"/>
<text x="1473" y="531" text-anchor="middle" fill="#94a3b8" font-size="10">Notification  [cg:notify]</text>
<line x1="1180" y1="530" x2="1395" y2="527" stroke="#22c55e" stroke-width="1.2" marker-end="url(#arr)"/>

<rect x="1220" y="560" width="155" height="30" rx="6" fill="#141a1e" stroke="#475569" stroke-width="1.2"/>
<text x="1298" y="579" text-anchor="middle" fill="#94a3b8" font-size="10">Analytics  [cg:analytics]</text>
<line x1="1180" y1="579" x2="1220" y2="575" stroke="#ef4444" stroke-width="1.2" marker-end="url(#arr)"/>

<!-- ─────────────────────────────────────────── -->
<!-- DOMAIN 4: ORDERS -->
<!-- ─────────────────────────────────────────── -->
<rect x="20" y="618" width="160" height="24" rx="4" fill="#0f2030"/>
<text x="100" y="635" text-anchor="middle" fill="#a5f3fc" font-size="11" font-weight="600">ORDERS</text>

<rect x="360" y="618" width="820" height="40" rx="6" fill="#0d1a25" stroke="#06b6d4" stroke-width="1.5"/>
<text x="380" y="635" fill="#06b6d4" font-size="11" font-weight="700">order.submitted</text>
<text x="560" y="635" fill="#64748b" font-size="10">order_id · signal_id · broker_order_id · symbol · quantity · order_type · state=PENDING</text>
<text x="380" y="650" fill="#475569" font-size="10">MAXLEN≈10,000 · 2yr retention (SEBI) → written to orders table + order_events hypertable</text>

<rect x="360" y="667" width="820" height="40" rx="6" fill="#0d1a25" stroke="#22c55e" stroke-width="1.5"/>
<text x="380" y="684" fill="#22c55e" font-size="11" font-weight="700">order.filled</text>
<text x="520" y="684" fill="#64748b" font-size="10">order_id · broker_order_id · fill_price · fill_qty · avg_fill_price · fill_timestamp · slippage_bps</text>
<text x="380" y="699" fill="#475569" font-size="10">MAXLEN≈5,000 · 2yr retention · triggers position update + Greeks recalc + MTM loop reset</text>

<rect x="360" y="716" width="820" height="40" rx="6" fill="#0d1a25" stroke="#ef4444" stroke-width="1.5"/>
<text x="380" y="733" fill="#f87171" font-size="11" font-weight="700">order.rejected</text>
<text x="530" y="733" fill="#64748b" font-size="10">order_id · reason · broker_message · attempt_count · rejection_source (BROKER/OMS/RISK)</text>
<text x="380" y="748" fill="#475569" font-size="10">MAXLEN≈2,000 · 2yr retention · rejection storm: &gt;5 in 60s triggers kill switch check</text>

<rect x="360" y="765" width="820" height="40" rx="6" fill="#0d1a25" stroke="#f59e0b" stroke-width="1.5"/>
<text x="380" y="782" fill="#f59e0b" font-size="11" font-weight="700">order.cancelled</text>
<text x="540" y="782" fill="#64748b" font-size="10">order_id · reason · cancelled_by (USER/KILL_SWITCH/TIMEOUT) · original_qty · filled_qty</text>
<text x="380" y="797" fill="#475569" font-size="10">MAXLEN≈2,000 · 2yr retention · kill switch cancels all open orders → published for each cancelled order</text>

<!-- Producers orders -->
<rect x="20" y="640" width="140" height="30" rx="6" fill="#1a2030" stroke="#06b6d4" stroke-width="1.2"/>
<text x="90" y="659" text-anchor="middle" fill="#a5f3fc" font-size="11">OMS</text>
<line x1="160" y1="655" x2="360" y2="638" stroke="#06b6d4" stroke-width="1.2" marker-end="url(#arrC)"/>
<line x1="160" y1="655" x2="360" y2="687" stroke="#06b6d4" stroke-width="1.2" marker-end="url(#arrC)"/>
<line x1="160" y1="655" x2="360" y2="733" stroke="#06b6d4" stroke-width="1.2" marker-end="url(#arrC)"/>
<line x1="160" y1="655" x2="360" y2="785" stroke="#06b6d4" stroke-width="1.2" marker-end="url(#arrC)"/>

<!-- Consumers orders -->
<rect x="1220" y="618" width="155" height="30" rx="6" fill="#14301e" stroke="#22c55e" stroke-width="1.2"/>
<text x="1298" y="637" text-anchor="middle" fill="#86efac" font-size="10">Position Service  [cg:position]</text>
<line x1="1180" y1="687" x2="1220" y2="633" stroke="#22c55e" stroke-width="1.2" marker-end="url(#arrG)"/>

<rect x="1395" y="618" width="155" height="30" rx="6" fill="#14301e" stroke="#22c55e" stroke-width="1.2"/>
<text x="1473" y="637" text-anchor="middle" fill="#86efac" font-size="10">Analytics  [cg:analytics]</text>
<line x1="1180" y1="687" x2="1395" y2="633" stroke="#22c55e" stroke-width="1.2" marker-end="url(#arrG)"/>

<rect x="1220" y="656" width="155" height="30" rx="6" fill="#2d1515" stroke="#ef4444" stroke-width="1.2"/>
<text x="1298" y="675" text-anchor="middle" fill="#fca5a5" font-size="10">Risk Engine  [cg:risk]</text>
<line x1="1180" y1="733" x2="1220" y2="671" stroke="#ef4444" stroke-width="1.2" marker-end="url(#arrR)"/>

<rect x="1395" y="656" width="155" height="30" rx="6" fill="#141a1e" stroke="#475569" stroke-width="1.2"/>
<text x="1473" y="675" text-anchor="middle" fill="#94a3b8" font-size="10">Notification  [cg:notify]</text>
<line x1="1180" y1="687" x2="1395" y2="671" stroke="#22c55e" stroke-width="1.2" marker-end="url(#arr)"/>

<rect x="1220" y="765" width="155" height="30" rx="6" fill="#141a1e" stroke="#475569" stroke-width="1.2"/>
<text x="1298" y="784" text-anchor="middle" fill="#94a3b8" font-size="10">DB Writer  [cg:db-writer]</text>
<line x1="1180" y1="785" x2="1220" y2="780" stroke="#f59e0b" stroke-width="1.2" marker-end="url(#arr)"/>

<!-- ─────────────────────────────────────────── -->
<!-- DOMAIN 5: RISK + SYSTEM -->
<!-- ─────────────────────────────────────────── -->
<rect x="20" y="824" width="160" height="24" rx="4" fill="#2d1515"/>
<text x="100" y="841" text-anchor="middle" fill="#fca5a5" font-size="11" font-weight="600">RISK / SYSTEM</text>

<rect x="360" y="824" width="820" height="40" rx="6" fill="#200d0d" stroke="#ef4444" stroke-width="2"/>
<text x="380" y="841" fill="#ef4444" font-size="11" font-weight="700">risk.limit.breached  ★</text>
<text x="560" y="841" fill="#64748b" font-size="10">breach_type · current_value · limit_value · pct_used · account_state(JSONB) · triggered_at</text>
<text x="380" y="856" fill="#475569" font-size="10">MAXLEN≈1,000 · 24h retention · 50%→warn 75%→paper 100%→kill switch · ★ immediate action required</text>

<rect x="360" y="873" width="820" height="40" rx="6" fill="#200d0d" stroke="#ef4444" stroke-width="2"/>
<text x="380" y="890" fill="#ef4444" font-size="11" font-weight="700">system.kill_switch  ★</text>
<text x="560" y="890" fill="#64748b" font-size="10">action (ACTIVATED/DEACTIVATED) · trigger_type · reason · actor · activation_id · timestamp</text>
<text x="380" y="905" fill="#475569" font-size="10">MAXLEN≈1,000 · no expiry · activates: unsubscribe WS + cancel orders + block OMS · ★ highest priority</text>

<rect x="360" y="922" width="820" height="40" rx="6" fill="#1a1a1a" stroke="#475569" stroke-width="1.5"/>
<text x="380" y="939" fill="#94a3b8" font-size="11" font-weight="700">system.heartbeat</text>
<text x="540" y="939" fill="#64748b" font-size="10">service_name · pid · ts · uptime_s · is_market_hours · status (HEALTHY/DEGRADED/DOWN)</text>
<text x="380" y="954" fill="#475569" font-size="10">MAXLEN≈5,000 · 5min retention · published 30s by each service · Dead Man's Switch watches this stream</text>

<rect x="360" y="971" width="820" height="40" rx="6" fill="#1a1a1a" stroke="#475569" stroke-width="1.5"/>
<text x="380" y="988" fill="#94a3b8" font-size="11" font-weight="700">system.instrument.refreshed</text>
<text x="590" y="988" fill="#64748b" font-size="10">refresh_id · records_updated · errors · duration_ms · next_refresh_at · 07:55 IST daily</text>
<text x="380" y="1003" fill="#475569" font-size="10">MAXLEN≈100 · 24h retention · signals WS Manager + strategies to rebuild instrument cache</text>

<!-- Producers system -->
<rect x="20" y="843" width="140" height="30" rx="6" fill="#2d1515" stroke="#ef4444" stroke-width="1.2"/>
<text x="90" y="862" text-anchor="middle" fill="#fca5a5" font-size="11">Risk Engine</text>
<line x1="160" y1="858" x2="360" y2="844" stroke="#ef4444" stroke-width="1.5" marker-end="url(#arrR)"/>
<line x1="160" y1="858" x2="360" y2="893" stroke="#ef4444" stroke-width="1.5" marker-end="url(#arrR)"/>

<rect x="20" y="940" width="140" height="30" rx="6" fill="#1a1a2e" stroke="#475569" stroke-width="1.2"/>
<text x="90" y="959" text-anchor="middle" fill="#94a3b8" font-size="11">All Services</text>
<line x1="160" y1="955" x2="360" y2="942" stroke="#475569" stroke-width="1.2" marker-end="url(#arr)"/>

<rect x="20" y="988" width="140" height="30" rx="6" fill="#1a1a2e" stroke="#475569" stroke-width="1.2"/>
<text x="90" y="1007" text-anchor="middle" fill="#94a3b8" font-size="11">Instrument Master</text>
<line x1="160" y1="1003" x2="360" y2="991" stroke="#475569" stroke-width="1.2" marker-end="url(#arr)"/>

<!-- Consumers system -->
<rect x="1220" y="824" width="155" height="30" rx="6" fill="#2d1515" stroke="#ef4444" stroke-width="1.2"/>
<text x="1298" y="843" text-anchor="middle" fill="#fca5a5" font-size="10">Kill Switch Svc  [cg:ks]</text>
<line x1="1180" y1="844" x2="1220" y2="839" stroke="#ef4444" stroke-width="1.5" marker-end="url(#arrR)"/>

<rect x="1395" y="824" width="155" height="30" rx="6" fill="#141a1e" stroke="#475569" stroke-width="1.2"/>
<text x="1473" y="843" text-anchor="middle" fill="#94a3b8" font-size="10">Notification  [cg:notify]</text>
<line x1="1180" y1="893" x2="1395" y2="839" stroke="#ef4444" stroke-width="1.2" marker-end="url(#arr)"/>

<rect x="1220" y="873" width="155" height="30" rx="6" fill="#1a2030" stroke="#06b6d4" stroke-width="1.5"/>
<text x="1298" y="892" text-anchor="middle" fill="#a5f3fc" font-size="10">OMS  [cg:oms]</text>
<line x1="1180" y1="893" x2="1220" y2="888" stroke="#ef4444" stroke-width="1.5" marker-end="url(#arrC)"/>

<rect x="1395" y="873" width="155" height="30" rx="6" fill="#14301e" stroke="#22c55e" stroke-width="1.2"/>
<text x="1473" y="892" text-anchor="middle" fill="#86efac" font-size="10">WebSocket Manager  [cg:ws]</text>
<line x1="1180" y1="893" x2="1395" y2="888" stroke="#ef4444" stroke-width="1.2" marker-end="url(#arrG)"/>

<rect x="1220" y="922" width="155" height="30" rx="6" fill="#141a1e" stroke="#475569" stroke-width="1.2"/>
<text x="1298" y="941" text-anchor="middle" fill="#94a3b8" font-size="10">Dead Man's Switch  [cg:dms]</text>
<line x1="1180" y1="942" x2="1220" y2="937" stroke="#475569" stroke-width="1.2" marker-end="url(#arr)"/>

<rect x="1220" y="971" width="155" height="30" rx="6" fill="#14301e" stroke="#22c55e" stroke-width="1.2"/>
<text x="1298" y="990" text-anchor="middle" fill="#86efac" font-size="10">Strategy Evaluator  [cg:strategy]</text>
<line x1="1180" y1="991" x2="1220" y2="986" stroke="#475569" stroke-width="1.2" marker-end="url(#arrG)"/>

<!-- ─────────────────────────────────────────── -->
<!-- DLQ + RETRY BOX -->
<!-- ─────────────────────────────────────────── -->
<rect x="360" y="1030" width="820" height="75" rx="8" fill="#1a1010" stroke="#7f1d1d" stroke-width="1.5" stroke-dasharray="6,3"/>
<text x="770" y="1050" text-anchor="middle" fill="#991b1b" font-size="12" font-weight="700">DLQ — Dead Letter Queues  (per domain)</text>
<text x="770" y="1068" text-anchor="middle" fill="#64748b" font-size="11">dlq.market_data · dlq.features · dlq.signals · dlq.orders · dlq.risk · dlq.system</text>
<text x="770" y="1085" text-anchor="middle" fill="#475569" font-size="11">Retry policy: 3 attempts · backoff 1s/2s/4s · failed → DLQ with error context + original message</text>
<text x="770" y="1100" text-anchor="middle" fill="#475569" font-size="11">DLQ monitor: Prometheus counter dlq_messages_total · alert if count &gt; 10 in 5min · manual replay via CLI</text>

<rect x="1220" y="1030" width="155" height="75" rx="8" fill="#1a1010" stroke="#7f1d1d" stroke-width="1.5" stroke-dasharray="6,3"/>
<text x="1298" y="1055" text-anchor="middle" fill="#991b1b" font-size="10" font-weight="600">DLQ Consumer</text>
<text x="1298" y="1073" text-anchor="middle" fill="#64748b" font-size="10">Alert engineer on-call</text>
<text x="1298" y="1090" text-anchor="middle" fill="#64748b" font-size="10">Log to structured log</text>
<text x="1298" y="1107" text-anchor="middle" fill="#64748b" font-size="10">CLI replay command</text>
<line x1="1180" y1="1068" x2="1220" y2="1068" stroke="#7f1d1d" stroke-width="1.2" stroke-dasharray="4,3" marker-end="url(#arr)"/>

<!-- LEGEND / FOOTER -->
<rect x="20" y="1125" width="1860" height="115" rx="8" fill="#161b22" stroke="#30363d" stroke-width="1"/>
<text x="950" y="1145" text-anchor="middle" fill="#e2e8f0" font-size="13" font-weight="700">IEventBus Interface  (implementation-agnostic)</text>
<text x="950" y="1163" text-anchor="middle" fill="#64748b" font-size="11">publish(topic: str, event: BaseEvent) → str  ·  subscribe(topic, group, handler) → None  ·  ack(topic, group, msg_id) → None  ·  replay(topic, from_id, to_id) → AsyncIterator</text>
<text x="950" y="1181" text-anchor="middle" fill="#64748b" font-size="11">Phase 1: RedisEventBus (Redis Streams XADD/XREADGROUP/XACK) · Phase 2: KafkaEventBus (same interface, no application code changes) · Switching = 1 config line change</text>
<text x="440" y="1200" fill="#374151" font-size="10">★ Critical streams: signal.risk.approved, system.kill_switch, order.filled — monitored with Prometheus gauges and P99 latency alerts</text>
<text x="440" y="1215" fill="#374151" font-size="10">Consumer group naming: cg:{domain}:{service} · All groups use XREADGROUP COUNT 10 BLOCK 100ms · ACK only after successful processing · NOACK never used in production</text>
</svg>
